<svg role="img" viewBox="-5 -5 82 82" xmlns="http://www.w3.org/2000/svg" id="Xiaohongshu--Streamline-Simple-Icons" height="82" width="82">
  <desc>
    Xiaohongshu Streamline Icon: https://streamlinehq.com
  </desc>
  <title>Xiaohongshu</title>
  <path d="M67.215 29.637c0.006 0.048 0.03 0.06 0.21000000000000002 0.056999999999999995h2.175a2.391 2.391 0 0 0 2.34 -2.916 2.382 2.382 0 0 0 -2.652 -1.854 2.3850000000000002 2.3850000000000002 0 0 0 -2.0759999999999996 2.382c0 0.30300000000000005 -0.006 1.9980000000000002 0.003 2.331zm-34.527 14.424c-0.609 0.003 -4.059 0.012 -5.055 0.009000000000000001a7.584 7.584 0 0 1 -2.298 -0.378 0.07500000000000001 0.07500000000000001 0 0 0 -0.09 0.042L23.1 48.381a0.07500000000000001 0.07500000000000001 0 0 0 0.03 0.096c0.333 0.18 1.008 0.372 1.4849999999999999 0.372 1.98 0.03 3.96 0.006 5.9430000000000005 0 0.03 0 0.06 -0.018000000000000002 0.069 -0.045l2.136 -4.635a0.07500000000000001 0.07500000000000001 0 0 0 -0.07200000000000001 -0.10799999999999998zM1.431 29.73c-0.21299999999999997 0 -0.22799999999999998 0.006 -0.22799999999999998 0.03a2.502 2.502 0 0 0 -0.03 0.24c-0.081 1.191 -0.11399999999999999 1.4849999999999999 -0.7020000000000001 9.18 -0.036000000000000004 0.72 -0.10200000000000001 1.167 -0.405 1.821 -0.078 0.171 -0.099 0.126 0.009000000000000001 0.336 0.138 0.276 2.043 4.569 2.361 5.22 0.024 0.045 0.033 0.06 0.051000000000000004 0.06 0.024 0 0.099 -0.078 0.14100000000000001 -0.132 0.44099999999999995 -0.5609999999999999 0.804 -1.173 1.113 -1.818 0.9179999999999999 -1.905 1.32 -3.9749999999999996 1.458 -5.118 0.042 -0.33 0.063 -0.66 0.09 -0.99l0.612 -7.848000000000001 0.066 -0.879c0.009000000000000001 -0.08700000000000001 0 -0.099 -0.09 -0.10200000000000001zm21.609 11.271a4.281000000000001 4.281000000000001 0 0 1 -0.405 -1.821c-0.012 -0.252 -0.093 -1.17 -0.705 -9.18a1.329 1.329 0 0 0 -0.03 -0.246c-0.012 -0.033 -0.156 -0.024 -0.22799999999999998 -0.024h-4.4399999999999995c-0.09 0.003 -0.10200000000000001 0.015 -0.09 0.10200000000000001l0.063 0.879c0.22799999999999998 2.9459999999999997 0.45899999999999996 5.8919999999999995 0.6990000000000001 8.838000000000001 0.15000000000000002 1.2000000000000002 0.558 3.255 1.4609999999999999 5.118 0.309 0.645 0.669 1.257 1.1099999999999999 1.818 0.045 0.05399999999999999 0.11099999999999999 0.153 0.14400000000000002 0.14700000000000002 0.06 -0.009000000000000001 2.226 -4.926 2.412 -5.295 0.10799999999999998 -0.21000000000000002 0.09 -0.165 0.009000000000000001 -0.336zm11.583 -2.739h-2.616a0.378 0.378 0 0 1 -0.34800000000000003 -0.534l3.534 -7.875a0.07500000000000001 0.07500000000000001 0 0 0 -0.069 -0.10500000000000001l-3.954 -0.009000000000000001a0.44399999999999995 0.44399999999999995 0 0 1 -0.405 -0.63l2.628 -5.862a0.07500000000000001 0.07500000000000001 0 0 0 -0.069 -0.10500000000000001h-4.68c-0.03 0 -0.06 0.018000000000000002 -0.07200000000000001 0.045l-2.778 6.204000000000001c-0.255 0.507 -0.942 1.9020000000000001 -1.197 2.814a1.602 1.602 0 0 0 -0.06 0.573 1.3800000000000001 1.3800000000000001 0 0 0 0.6900000000000001 1.134 2.943 2.943 0 0 0 1.3800000000000001 0.357h1.77c0.123 0 -2.064 4.446 -2.502 5.916a1.59 1.59 0 0 0 -0.069 0.516 1.395 1.395 0 0 0 0.6900000000000001 1.194c0.44999999999999996 0.276 1.026 0.36 1.4249999999999998 0.36l4.9799999999999995 -0.003c0.03 0 0.06 -0.018000000000000002 0.069 -0.045l1.7249999999999999 -3.84a0.07500000000000001 0.07500000000000001 0 0 0 -0.07200000000000001 -0.10500000000000001zm-20.79 -14.811H9.3a0.096 0.096 0 0 0 -0.10200000000000001 0.099c0 3.144 -0.03 8.385 -0.03 20.487 0 0.8639999999999999 -0.807 0.786 -0.8400000000000001 0.786h-2.2199999999999998c-0.12 0.003 -0.132 0.012 -0.12 0.14100000000000001 0.003 0.11099999999999999 1.395 3.192 1.665 3.7889999999999997 0.03 0.06 0.09 0.099 0.153 0.099 0.471 0.009000000000000001 2.301 0.026999999999999996 2.814 -0.042 0.45899999999999996 -0.06 0.8999999999999999 -0.18 1.314 -0.396 0.8999999999999999 -0.46799999999999997 1.47 -1.257 1.785 -2.295 0.156 -0.516 0.22499999999999998 -1.059 0.22499999999999998 -1.5990000000000002 0.006 -6.99 0 -13.98 -0.021 -20.973a0.096 0.096 0 0 0 -0.096 -0.096zm35.352000000000004 20.688c0 -0.042 -0.03 -0.063 -0.07200000000000001 -0.066h-4.3950000000000005c-0.14400000000000002 -0.003 -0.14700000000000002 -0.006 -0.15000000000000002 -0.14700000000000002v-13.98c0 -0.21599999999999997 -0.015 -0.21000000000000002 0.21000000000000002 -0.21000000000000002h2.589c0.24 0 0.22499999999999998 0.012 0.22499999999999998 -0.22199999999999998V25.179000000000002c0 -0.246 0.018000000000000002 -0.22799999999999998 -0.24 -0.22799999999999998h-10.5c-0.192 0 -0.22499999999999998 -0.018000000000000002 -0.22499999999999998 0.21899999999999997v4.335c0 0.249 -0.018000000000000002 0.23099999999999998 0.24 0.23099999999999998h2.562c0.22499999999999998 0 0.21000000000000002 -0.012 0.21000000000000002 0.21000000000000002v13.872c0 0.28500000000000003 0.024 0.252 -0.255 0.252 -1.1099999999999999 0 -3.33 -0.006 -3.912 0 -0.14400000000000002 0.003 -0.18 0.09 -0.18 0.09l-2.0909999999999997 4.5569999999999995s-0.042 0.07500000000000001 -0.024 0.10799999999999998c0.018000000000000002 0.03 0.039 0.024 0.17400000000000002 0.024 5.244 0.009000000000000001 10.485 0.006 15.729000000000001 0.006 0.09 -0.003 0.10200000000000001 -0.018000000000000002 0.10500000000000001 -0.099v-4.617zm12.530999999999999 -10.290000000000001c0 0.039 -0.021 0.069 -0.06 0.07200000000000001 -1.0379999999999998 0.018000000000000002 -2.0759999999999996 0.012 -3.1109999999999998 0.012 -0.042 -0.006 -0.066 -0.03 -0.066 -0.07200000000000001 -0.015 -1.302 -0.021 -2.607 -0.03 -3.909 0 -0.21599999999999997 -0.018000000000000002 -0.21299999999999997 0.21000000000000002 -0.21000000000000002l2.199 -0.009000000000000001c0.123 0 0.243 0.006 0.36 0.045 0.279 0.07500000000000001 0.48 0.321 0.495 0.612 0.018000000000000002 1.293 0.006 3.459 0.003 3.459zm8.01 0.732a5.859 5.859 0 0 0 -2.649 -0.666h-0.54c-0.12 -0.003 -0.12 -0.009000000000000001 -0.126 -0.12V30.630000000000003c0 -0.396 -0.021 -0.789 -0.07500000000000001 -1.182a5.468999999999999 5.468999999999999 0 0 0 -0.45899999999999996 -1.59 4.599 4.599 0 0 0 -2.031 -2.13 6.5009999999999994 6.5009999999999994 0 0 0 -3 -0.774c-0.45899999999999996 -0.009000000000000001 -1.7009999999999998 0 -2.16 0 -0.21000000000000002 0 -0.20400000000000001 0.012 -0.20400000000000001 -0.195V23.28c0 -0.093 -0.03 -0.123 -0.138 -0.11699999999999999H53.79s-0.048 0 -0.069 0.021c-0.018000000000000002 0.018000000000000002 -0.024 0.036000000000000004 -0.024 0.069v1.6380000000000001c-0.024 0.10799999999999998 -0.171 0.045 -0.246 0.066h-2.8499999999999996c-0.066 0.006 -0.084 0.024 -0.09 0.096v4.4430000000000005c0 0.27 -0.012 0.246 0.246 0.246h2.739c0.246 0 0.21599999999999997 0.384 0.21599999999999997 0.384v3.444s0.009000000000000001 0.35100000000000003 -0.18 0.35100000000000003h-4.446c-0.20400000000000001 0 -0.18 0.246 -0.18 0.246v4.335s-0.03 0.20400000000000001 0.192 0.20400000000000001h4.371c0.246 0 0.22799999999999998 -0.018000000000000002 0.22799999999999998 0.237v9.675c0 0.264 -0.021 0.243 0.246 0.243h4.29c0.27 0 0.246 0.021 0.246 -0.24v-9.81c0 -0.08700000000000001 0.018000000000000002 -0.10500000000000001 0.099 -0.10500000000000001l6.968999999999999 -0.009000000000000001c0.29400000000000004 0 0.573 0.06 0.8400000000000001 0.183a1.3800000000000001 1.3800000000000001 0 0 1 0.8220000000000001 1.2209999999999999c0.024 1.185 0.009000000000000001 2.37 0.009000000000000001 3.555 0 0.777 -0.321 1.101 -0.99 1.101h-3.654c-0.069 0.006 -0.08700000000000001 0.024 -0.084 0.099 0.552 1.311 1.1219999999999999 2.613 1.71 3.909a0.135 0.135 0 0 0 0.12 0.078c0.51 0.015 1.02 0.006 1.53 0.009000000000000001 0.44999999999999996 -0.006 1.5510000000000002 0.012 1.9980000000000002 -0.03a6.09 6.09 0 0 0 1.224 -0.22499999999999998c1.77 -0.54 2.925 -2.094 2.928 -3.939v-5.9430000000000005c0 -0.384 -0.03 -0.762 -0.10200000000000001 -1.1400000000000001 0 0.23399999999999999 -0.08700000000000001 -1.923 -2.1719999999999997 -2.9939999999999998z" fill="#4c4c4c" stroke-width="3"></path>
</svg>